<svg xmlns="http://www.w3.org/2000/svg" viewBox="0 0 512 512">
  <defs>
    <linearGradient id="g" x1="60" x2="452" y1="60" y2="452" gradientUnits="userSpaceOnUse">
      <stop stop-color="#38BDF8"/>
      <stop offset=".5" stop-color="#A78BFA"/>
      <stop offset="1" stop-color="#34D399"/>
    </linearGradient>
  </defs>
  <rect width="512" height="512" rx="120" fill="url(#g)"/>
  <path fill="rgba(255,255,255,.82)" d="M148 138h216c28 0 50 22 50 50v136c0 28-22 50-50 50H148c-28 0-50-22-50-50V188c0-28 22-50 50-50Z"/>
  <path fill="#0F172A" d="M166 208h180a18 18 0 1 1 0 36H166a18 18 0 1 1 0-36Zm0 70h126a18 18 0 1 1 0 36H166a18 18 0 1 1 0-36Z"/>
  <path fill="#10B981" d="m327 304 22 22 51-59 27 23-76 88-51-51 27-23Z"/>
</svg>
